#tb 0: 1/25
#media_type 0: video
#codec_id 0: rawvideo
#dimensions 0: 256x256
#sar 0: 1/1
0,          0,          0,        1,   196608, 0xdad38823
0,          1,          1,        1,   196608, 0xeb8589bd
0,          2,          2,        1,   196608, 0x31a79c93
